<?xml version="1.0" encoding="utf-8"?>
<!-- Generator: Adobe Illustrator 16.0.0, SVG Export Plug-In . SVG Version: 6.00 Build 0)  -->
<!DOCTYPE svg PUBLIC "-//W3C//DTD SVG 1.1//EN" "http://www.w3.org/Graphics/SVG/1.1/DTD/svg11.dtd">
<svg version="1.1" id="Capa_1" xmlns="http://www.w3.org/2000/svg" xmlns:xlink="http://www.w3.org/1999/xlink" x="0px" y="0px"
	 width="207px" height="20px" viewBox="0 0 207 20" enable-background="new 0 0 207 20" xml:space="preserve">
<g enable-background="new    ">
	<path fill="#3B3B3B" d="M6.535,9.554h9.707V5.165c0-0.938-0.053-1.632-0.157-2.078c-0.105-0.446-0.299-0.815-0.581-1.107
		c-0.255-0.265-0.545-0.456-0.868-0.574c-0.324-0.118-0.75-0.191-1.278-0.219V0.872h8.736v0.314
		c-0.52,0.027-0.941,0.101-1.265,0.219c-0.324,0.118-0.613,0.31-0.868,0.574c-0.283,0.292-0.477,0.663-0.581,1.114
		c-0.105,0.451-0.157,1.142-0.157,2.071V15.24c0,0.93,0.052,1.618,0.157,2.063c0.104,0.446,0.298,0.82,0.581,1.121
		c0.255,0.256,0.544,0.444,0.868,0.567c0.323,0.123,0.745,0.198,1.265,0.226v0.316h-8.736V19.22
		c0.528-0.026,0.955-0.103,1.278-0.226c0.323-0.123,0.613-0.313,0.868-0.567c0.282-0.291,0.476-0.66,0.581-1.106
		c0.104-0.446,0.157-1.14,0.157-2.078v-5.045H6.535v5.045c0,0.931,0.052,1.62,0.157,2.071c0.104,0.451,0.298,0.822,0.581,1.113
		c0.246,0.256,0.531,0.444,0.854,0.567c0.323,0.123,0.75,0.198,1.278,0.226v0.314H0.67V19.22c0.528-0.026,0.955-0.103,1.278-0.226
		c0.323-0.123,0.608-0.313,0.854-0.567c0.292-0.291,0.487-0.66,0.588-1.106c0.1-0.446,0.15-1.14,0.15-2.078V5.165
		c0-0.938-0.05-1.632-0.15-2.078C3.29,2.64,3.094,2.271,2.803,1.979C2.557,1.715,2.27,1.523,1.941,1.405S1.189,1.214,0.67,1.186
		V0.872h8.736v0.314C8.887,1.214,8.465,1.287,8.142,1.405c-0.324,0.118-0.613,0.31-0.868,0.574C6.991,2.271,6.797,2.642,6.692,3.094
		C6.587,3.545,6.535,4.235,6.535,5.165V9.554z"/>
	<path fill="#3B3B3B" d="M42.479,19.534h-8.982V19.22c0.811-0.072,1.376-0.209,1.695-0.41c0.565-0.354,0.848-0.848,0.848-1.477
		c0-0.374-0.128-0.875-0.383-1.504l-0.232-0.574l-1.313-3.227h-6.016l-0.711,1.887l-0.342,0.848
		c-0.41,1.004-0.615,1.791-0.615,2.365c0,0.338,0.075,0.651,0.226,0.943c0.151,0.292,0.353,0.527,0.608,0.711
		c0.355,0.246,0.811,0.393,1.367,0.438v0.314h-6.125V19.22c0.483-0.026,0.907-0.146,1.271-0.354c0.364-0.21,0.72-0.547,1.066-1.013
		c0.292-0.373,0.576-0.854,0.854-1.441c0.278-0.588,0.645-1.47,1.101-2.646L31.8,0.872h0.779l5.947,14.369
		c0.446,1.085,0.802,1.859,1.066,2.324c0.264,0.465,0.551,0.814,0.861,1.053c0.219,0.164,0.469,0.289,0.752,0.376
		c0.282,0.087,0.706,0.162,1.271,0.226v0.314H42.479z M33.893,11.468l-2.871-7.082l-2.707,7.082H33.893z"/>
	<path fill="#3B3B3B" d="M59.678,0.776l0.164,6.111h-0.314c-0.101-0.265-0.178-0.465-0.232-0.602
		c-0.319-0.875-0.579-1.526-0.779-1.955c-0.355-0.766-0.871-1.468-1.545-2.105c-0.511-0.483-1.039-0.834-1.586-1.053
		c-0.547-0.219-1.162-0.328-1.846-0.328c-1.03,0-1.923,0.224-2.68,0.67C50.194,1.906,49.574,2.47,49,3.203s-1.044,1.57-1.408,2.509
		c-0.52,1.321-0.779,2.825-0.779,4.512c0,1.432,0.178,2.722,0.533,3.869c0.355,1.148,0.875,2.11,1.559,2.885
		c1.258,1.44,2.926,2.16,5.004,2.16c1.039,0,1.973-0.18,2.803-0.539c0.829-0.36,1.472-0.869,1.928-1.524
		c0.528-0.757,0.911-1.776,1.148-3.063l0.314,0.056c-0.173,1.44-0.565,2.584-1.176,3.432c-0.583,0.812-1.388,1.431-2.413,1.859
		C55.488,19.785,54.3,20,52.951,20c-1.258,0-2.461-0.187-3.609-0.562c-1.832-0.602-3.263-1.688-4.293-3.26
		c-1.03-1.572-1.545-3.447-1.545-5.627c0-1.667,0.301-3.206,0.902-4.614c0.601-1.408,1.44-2.541,2.516-3.397
		c0.829-0.656,1.82-1.178,2.974-1.565c1.153-0.388,2.308-0.581,3.466-0.581c1.103,0,2.27,0.21,3.5,0.629l1.121,0.369
		c0.219,0.082,0.41,0.123,0.574,0.123c0.228,0,0.415-0.096,0.561-0.287c0.063-0.091,0.141-0.241,0.232-0.451h0.328V0.776z"/>
	<path fill="#3B3B3B" d="M67.471,10.019l5.783-5.742c0.574-0.565,0.932-0.95,1.073-1.155c0.141-0.205,0.212-0.431,0.212-0.677
		c0-0.446-0.219-0.784-0.656-1.012c-0.228-0.109-0.611-0.191-1.148-0.246V0.872h5.893v0.314c-0.401,0.036-0.736,0.103-1.005,0.198
		c-0.269,0.096-0.563,0.258-0.882,0.485c-0.355,0.255-0.966,0.798-1.832,1.627l-4.43,4.252l6.303,8.039l0.779,0.998
		c0.574,0.711,1.171,1.267,1.791,1.668c0.374,0.246,0.702,0.422,0.984,0.526c0.282,0.104,0.638,0.185,1.066,0.238v0.316h-9.037
		V19.22c0.684-0.055,1.176-0.168,1.477-0.342c0.301-0.173,0.451-0.429,0.451-0.766c0-0.364-0.187-0.829-0.561-1.395
		c-0.183-0.273-0.524-0.748-1.025-1.423s-0.925-1.222-1.271-1.641L68.36,9.841l-0.889,0.875v4.524c0,0.93,0.052,1.62,0.157,2.071
		c0.104,0.451,0.298,0.822,0.581,1.113c0.246,0.256,0.531,0.444,0.854,0.567s0.75,0.198,1.278,0.226v0.316h-8.736V19.22
		c0.528-0.026,0.955-0.103,1.278-0.226c0.323-0.123,0.608-0.313,0.854-0.567c0.292-0.291,0.487-0.66,0.588-1.106
		c0.1-0.446,0.15-1.14,0.15-2.078V5.165c0-0.938-0.05-1.632-0.15-2.078c-0.101-0.446-0.296-0.815-0.588-1.107
		c-0.246-0.265-0.533-0.456-0.861-0.574s-0.752-0.191-1.271-0.219V0.872h8.736v0.314c-0.52,0.027-0.941,0.101-1.265,0.219
		c-0.324,0.118-0.613,0.31-0.868,0.574c-0.283,0.292-0.477,0.663-0.581,1.114c-0.105,0.451-0.157,1.142-0.157,2.071L67.471,10.019
		L67.471,10.019z"/>
	<path fill="#3B3B3B" d="M96.127,0.872l0.232,4.512l-0.314,0.014c-0.119-0.766-0.314-1.399-0.588-1.9s-0.67-0.943-1.189-1.326
		c-0.429-0.319-0.935-0.545-1.518-0.677s-1.358-0.198-2.324-0.198h-3.131V9.5h0.82c0.829,0,1.454-0.055,1.873-0.164
		c0.419-0.108,0.761-0.306,1.025-0.588c0.255-0.265,0.444-0.576,0.567-0.937c0.123-0.361,0.226-0.891,0.308-1.593l0.314,0.014
		l-0.055,7.327h-0.314c-0.082-0.701-0.203-1.267-0.362-1.694c-0.16-0.429-0.381-0.793-0.663-1.095
		c-0.273-0.291-0.629-0.506-1.066-0.643s-0.994-0.205-1.668-0.205h-0.779v3.131c0,1.25,0.032,2.158,0.096,2.729
		c0.063,0.568,0.187,1.046,0.369,1.429c0.31,0.656,0.781,1.138,1.415,1.442c0.633,0.306,1.47,0.458,2.509,0.458
		c1.094,0,2.01-0.14,2.748-0.417c0.738-0.278,1.34-0.709,1.805-1.292c0.328-0.392,0.595-0.839,0.8-1.341
		c0.205-0.5,0.394-1.161,0.567-1.981l0.314,0.015l-0.178,5.439H81.43V19.22c0.52-0.026,0.941-0.101,1.265-0.219
		c0.323-0.117,0.613-0.31,0.868-0.574c0.282-0.291,0.476-0.662,0.581-1.113c0.104-0.451,0.157-1.143,0.157-2.071V5.165
		c0-0.93-0.053-1.62-0.157-2.071c-0.105-0.451-0.299-0.822-0.581-1.114c-0.246-0.265-0.531-0.456-0.854-0.574
		c-0.324-0.118-0.75-0.191-1.278-0.219V0.872H96.127z"/>
	<path fill="#3B3B3B" d="M104.74,10.401v4.84c0,0.93,0.053,1.62,0.156,2.07c0.104,0.451,0.299,0.822,0.582,1.115
		c0.246,0.254,0.53,0.443,0.854,0.566c0.322,0.123,0.749,0.198,1.277,0.227v0.314h-8.735V19.22c0.528-0.026,0.955-0.103,1.278-0.226
		c0.323-0.123,0.608-0.313,0.854-0.567c0.292-0.291,0.487-0.66,0.588-1.106c0.1-0.446,0.15-1.14,0.15-2.078V5.165
		c0-0.938-0.05-1.632-0.15-2.078c-0.101-0.446-0.296-0.815-0.588-1.107c-0.246-0.265-0.533-0.456-0.861-0.574
		s-0.752-0.191-1.271-0.219V0.872h6.59c1.103,0,1.827,0.005,2.175,0.014c1.411,0.063,2.52,0.255,3.321,0.574
		c0.901,0.364,1.603,0.909,2.099,1.634c0.498,0.725,0.746,1.565,0.746,2.522c0,1.422-0.539,2.562-1.613,3.418
		c-0.328,0.255-0.69,0.465-1.088,0.629c-0.396,0.164-0.928,0.319-1.593,0.465c0.548,0.229,0.952,0.465,1.218,0.711
		c0.209,0.191,0.399,0.432,0.573,0.719c0.173,0.287,0.433,0.795,0.779,1.523c0.812,1.668,1.424,2.887,1.839,3.657
		s0.764,1.328,1.046,1.675c0.228,0.282,0.449,0.479,0.663,0.588s0.508,0.184,0.882,0.219v0.314h-4.538
		c-0.229-0.501-0.375-0.82-0.438-0.957l-0.957-2.174c-0.574-1.305-1.153-2.456-1.736-3.459c-0.584-0.993-1.116-1.674-1.6-2.037
		c-0.246-0.184-0.511-0.313-0.793-0.391c-0.283-0.076-0.63-0.115-1.039-0.115H104.74z M104.74,10.101h0.52
		c1.131,0,1.939-0.063,2.428-0.191c0.487-0.128,0.944-0.393,1.373-0.793c0.957-0.911,1.437-2.042,1.437-3.391
		c0-0.72-0.14-1.396-0.417-2.03c-0.278-0.634-0.663-1.155-1.155-1.565c-0.383-0.31-0.839-0.526-1.366-0.649
		c-0.529-0.123-1.281-0.185-2.257-0.185h-0.561L104.74,10.101L104.74,10.101z"/>
	<path fill="#3B3B3B" d="M127.436,3.347v11.895c0,0.938,0.053,1.632,0.157,2.078s0.298,0.815,0.581,1.106
		c0.256,0.266,0.545,0.457,0.868,0.574c0.323,0.118,0.745,0.191,1.265,0.219v0.314h-6.303V19.22c0.52-0.026,0.941-0.101,1.266-0.219
		c0.323-0.117,0.611-0.31,0.867-0.574c0.282-0.291,0.477-0.662,0.581-1.113s0.157-1.143,0.157-2.071V5.151
		c0-0.921-0.053-1.606-0.157-2.058c-0.104-0.452-0.299-0.822-0.581-1.114c-0.246-0.265-0.531-0.456-0.854-0.574
		c-0.323-0.118-0.75-0.191-1.278-0.219V0.872h5.265l11.102,14.164V5.165c0-0.938-0.053-1.632-0.157-2.078
		c-0.104-0.446-0.299-0.815-0.581-1.107c-0.256-0.265-0.545-0.456-0.867-0.574c-0.324-0.118-0.746-0.191-1.266-0.219V0.872h6.303
		v0.314c-0.912,0-1.623,0.265-2.133,0.793c-0.283,0.292-0.477,0.663-0.581,1.114c-0.104,0.451-0.157,1.137-0.157,2.058v14.383
		h-0.615L127.436,3.347z"/>
	<path fill="#3B3B3B" d="M159.852,0.872l0.232,4.512l-0.314,0.014c-0.119-0.766-0.313-1.399-0.588-1.9
		c-0.273-0.501-0.67-0.943-1.188-1.326c-0.429-0.319-0.935-0.545-1.519-0.677s-1.357-0.198-2.324-0.198h-3.131V9.5h0.82
		c0.829,0,1.453-0.055,1.873-0.164c0.419-0.108,0.762-0.306,1.025-0.588c0.255-0.265,0.443-0.576,0.566-0.937
		c0.123-0.361,0.227-0.891,0.309-1.593l0.313,0.014l-0.055,7.327h-0.313c-0.082-0.701-0.203-1.267-0.363-1.694
		c-0.158-0.429-0.381-0.793-0.662-1.095c-0.273-0.291-0.629-0.506-1.066-0.643c-0.437-0.137-0.994-0.205-1.668-0.205h-0.779v3.131
		c0,1.25,0.031,2.158,0.097,2.729c0.063,0.568,0.187,1.046,0.368,1.429c0.311,0.656,0.781,1.138,1.416,1.442
		c0.634,0.305,1.47,0.458,2.509,0.458c1.094,0,2.01-0.14,2.748-0.417c0.737-0.278,1.34-0.709,1.805-1.292
		c0.328-0.392,0.595-0.839,0.8-1.341c0.205-0.5,0.395-1.161,0.567-1.981l0.313,0.015l-0.178,5.439h-16.311V19.22
		c0.52-0.026,0.941-0.101,1.265-0.219c0.324-0.117,0.612-0.31,0.868-0.574c0.281-0.291,0.477-0.662,0.581-1.113
		s0.157-1.143,0.157-2.071V5.165c0-0.93-0.053-1.62-0.157-2.071c-0.104-0.451-0.3-0.822-0.581-1.114
		c-0.246-0.265-0.531-0.456-0.854-0.574c-0.324-0.118-0.75-0.191-1.279-0.219V0.872H159.852z"/>
	<path fill="#3B3B3B" d="M161.465,0.872h8.6v0.314c-0.803,0-1.35,0.06-1.641,0.178c-0.246,0.109-0.447,0.287-0.602,0.533
		c-0.155,0.246-0.232,0.524-0.232,0.834c0,0.383,0.146,0.911,0.438,1.586l0.355,0.848l4.252,10.391l2.967-8.955
		c0.383-1.148,0.574-2.005,0.574-2.57c0-0.419-0.074-0.827-0.226-1.224s-0.349-0.718-0.595-0.964
		c-0.237-0.237-0.508-0.405-0.813-0.506c-0.306-0.101-0.694-0.15-1.169-0.15V0.872h8.791v0.314c-0.538,0-0.928,0.019-1.169,0.055
		s-0.468,0.114-0.677,0.232c-0.273,0.164-0.494,0.398-0.664,0.704c-0.168,0.306-0.252,0.636-0.252,0.991
		c0,0.328,0.127,0.897,0.383,1.709l3.363,10.843l3.76-9.229c0.583-1.413,0.875-2.507,0.875-3.281c0-0.812-0.27-1.386-0.807-1.723
		c-0.328-0.2-0.826-0.301-1.49-0.301V0.872h6.33v0.314c-0.611,0.063-1.073,0.18-1.389,0.349c-0.314,0.169-0.627,0.477-0.937,0.923
		c-0.456,0.638-1.025,1.791-1.709,3.459l-5.618,13.617h-0.561l-4.867-14.561l-4.936,14.561h-0.615l-6.11-14.711l-0.41-0.998
		c-0.283-0.675-0.521-1.162-0.711-1.463c-0.19-0.301-0.425-0.538-0.697-0.711c-0.219-0.146-0.456-0.251-0.711-0.314
		c-0.256-0.063-0.614-0.114-1.08-0.15L161.465,0.872L161.465,0.872z"/>
	<path fill="#3B3B3B" d="M192.691,19.479l0.041-5.646l0.313,0.014c0.384,1.438,0.838,2.568,1.367,3.396
		c0.993,1.527,2.241,2.291,3.746,2.291c1.048,0,1.914-0.352,2.598-1.053c0.685-0.702,1.025-1.592,1.025-2.666
		c0-0.465-0.075-0.938-0.226-1.422c-0.152-0.484-0.354-0.897-0.608-1.244c-0.265-0.355-0.636-0.697-1.114-1.025
		s-1.21-0.742-2.193-1.244c-0.867-0.438-1.529-0.807-1.99-1.106c-0.459-0.3-0.832-0.606-1.113-0.916
		c-0.784-0.856-1.176-1.9-1.176-3.131c0-0.757,0.152-1.485,0.457-2.188c0.307-0.703,0.731-1.304,1.279-1.805
		c0.965-0.894,2.108-1.34,3.432-1.34c0.428,0,0.824,0.043,1.188,0.13c0.364,0.087,0.853,0.258,1.464,0.513
		c0.454,0.183,0.766,0.299,0.93,0.349c0.164,0.05,0.31,0.075,0.438,0.075c0.318,0,0.533-0.232,0.643-0.697h0.314l0.096,5.428h-0.313
		c-0.246-0.866-0.457-1.529-0.636-1.989c-0.178-0.46-0.389-0.887-0.635-1.278c-0.444-0.711-0.938-1.237-1.474-1.579
		c-0.537-0.342-1.155-0.513-1.856-0.513c-1.02,0-1.823,0.347-2.416,1.04c-0.244,0.283-0.438,0.616-0.58,0.999
		c-0.141,0.384-0.211,0.767-0.211,1.149c0,1.524,0.979,2.751,2.937,3.682l1.924,0.931c1.484,0.703,2.554,1.479,3.209,2.326
		c0.746,0.949,1.119,2.054,1.119,3.313c0,0.837-0.169,1.637-0.506,2.4c-0.476,1.063-1.187,1.885-2.133,2.461
		C201.082,19.711,199.966,20,198.68,20c-1.176,0-2.307-0.231-3.391-0.696c-0.564-0.246-0.902-0.389-1.012-0.425
		c-0.11-0.036-0.232-0.055-0.369-0.055c-0.438,0-0.738,0.219-0.902,0.655H192.691L192.691,19.479z"/>
</g>
</svg>
